<svg height="24" width="24" viewBox="0 0 512 512" xmlns="http://www.w3.org/2000/svg">
   <path fill="#fff" fill-rule="evenodd" clip-rule="evenodd" d="M256 0.5c141.11,0 255.5,114.39 255.5,255.5 0,141.11 -114.39,255.5 -255.5,255.5 -141.11,0 -255.5,-114.39 -255.5,-255.5 0,-141.11 114.39,-255.5 255.5,-255.5zm-75.05 159.07c53.26,0 96.43,43.18 96.43,96.43 0,53.25 -43.17,96.43 -96.43,96.43 -53.25,0 -96.42,-43.18 -96.42,-96.43 0,-53.25 43.17,-96.43 96.42,-96.43zm154.29 7.62c26.95,0 48.79,39.76 48.79,88.81 0,49.05 -21.84,88.81 -48.79,88.81 -26.95,0 -48.79,-39.76 -48.79,-88.81 0,-49.05 21.84,-88.81 48.79,-88.81zm75.24 7.61c9.38,0 16.99,36.35 16.99,81.2 0,44.85 -7.61,81.2 -16.99,81.2 -9.39,0 -17,-36.35 -17,-81.2 0,-44.85 7.61,-81.2 17,-81.2z"/>
</svg>